<?xml version="1.0" encoding="UTF-8" standalone="no"?>
<!DOCTYPE svg PUBLIC "-//W3C//DTD SVG 1.1//EN"
 "http://www.w3.org/Graphics/SVG/1.1/DTD/svg11.dtd">
<!-- Generated by graphviz version 14.1.2 (20260124.0452)
 -->
<!-- Title: G Pages: 1 -->
<svg width="447pt" height="1597pt"
 viewBox="0.00 0.00 447.00 1597.00" xmlns="http://www.w3.org/2000/svg" xmlns:xlink="http://www.w3.org/1999/xlink">
<g id="graph0" class="graph" transform="scale(1 1) rotate(0) translate(36 1561)">
<title>G</title>
<polygon fill="#f7f7f7" stroke="none" points="-36,36 -36,-1561 410.75,-1561 410.75,36 -36,36"/>
<!-- appmodelsevent -->
<g id="node1" class="node">
<title>appmodelsevent</title>
<polygon fill="none" stroke="black" points="100,-141 0,-141 0,-41 100,-41 100,-141"/>
<polygon fill="#d3d3d3" stroke="none" points="0,-101.75 0,-141 100,-141 100,-101.75 0,-101.75"/>
<polygon fill="none" stroke="black" points="0,-101.75 0,-141 100,-141 100,-101.75 0,-101.75"/>
<text xml:space="preserve" text-anchor="start" x="33.12" y="-116.7" font-family="Helvetica Neue" font-size="14.00" fill="#333333">Event</text>
</g>
<!-- appmodelseventimage -->
<g id="node2" class="node">
<title>appmodelseventimage</title>
<polygon fill="none" stroke="black" points="361.62,-100 261.62,-100 261.62,0 361.62,0 361.62,-100"/>
<polygon fill="#d3d3d3" stroke="none" points="261.62,-60.75 261.62,-100 361.62,-100 361.62,-60.75 261.62,-60.75"/>
<polygon fill="none" stroke="black" points="261.62,-60.75 261.62,-100 361.62,-100 361.62,-60.75 261.62,-60.75"/>
<text xml:space="preserve" text-anchor="start" x="274.88" y="-75.7" font-family="Helvetica Neue" font-size="14.00" fill="#333333">EventImage</text>
</g>
<!-- appmodelsevent&#45;&gt;appmodelseventimage -->
<g id="edge1" class="edge">
<title>appmodelsevent:id&#45;&gt;appmodelseventimage:event_id</title>
<path fill="none" stroke="#fcbf49" stroke-width="1.8" d="M100.44,-83.19C143.21,-76.44 205.17,-66.65 250.74,-59.46"/>
<polygon fill="#fcbf49" stroke="#fcbf49" stroke-width="1.8" points="250.89,-59.43 261.47,-62.32 256.43,-58.56 260.18,-57.97 260.18,-57.97 260.18,-57.97 256.43,-58.56 260.07,-53.43 250.89,-59.43"/>
<text xml:space="preserve" text-anchor="middle" x="174.25" y="-75.68" font-family="Helvetica Neue" font-size="14.00"> </text>
<text xml:space="preserve" text-anchor="middle" x="203.34" y="-58.02" font-family="Helvetica Neue" font-size="14.00">HasMany</text>
<text xml:space="preserve" text-anchor="middle" x="203.34" y="-40.77" font-family="Helvetica Neue" font-size="14.00">images</text>
</g>
<!-- appmodelseventimage&#45;&gt;appmodelsevent -->
<g id="edge2" class="edge">
<title>appmodelseventimage:event_id&#45;&gt;appmodelsevent:id</title>
<path fill="none" stroke="#f77f00" stroke-width="1.8" d="M250.96,-44.11C215.16,-40.57 176.5,-36.75 176.5,-36.75 176.5,-36.75 172,-36.75 172,-36.75 172,-36.75 136.93,-52.47 104.56,-66.99"/>
<polygon fill="#f77f00" stroke="#f77f00" stroke-width="1.8" points="250.89,-44.1 260.4,-49.56 256.47,-44.65 260.25,-45.02 260.25,-45.02 260.25,-45.02 256.47,-44.65 261.29,-40.6 250.89,-44.1"/>
<polygon fill="#f77f00" stroke="#f77f00" stroke-width="1.8" points="103.17,-73.09 99.08,-63.96 100.91,-63.14 105,-72.27 103.17,-73.09"/>
<polyline fill="none" stroke="#f77f00" stroke-width="1.8" points="100.22,-68.93 104.78,-66.89"/>
<text xml:space="preserve" text-anchor="middle" x="174.25" y="-40.7" font-family="Helvetica Neue" font-size="14.00"> </text>
<text xml:space="preserve" text-anchor="middle" x="143.96" y="-23.45" font-family="Helvetica Neue" font-size="14.00">BelongsTo</text>
<text xml:space="preserve" text-anchor="middle" x="143.96" y="-6.2" font-family="Helvetica Neue" font-size="14.00">event</text>
</g>
<!-- appmodelsproduction -->
<g id="node3" class="node">
<title>appmodelsproduction</title>
<polygon fill="none" stroke="black" points="100,-321 0,-321 0,-221 100,-221 100,-321"/>
<polygon fill="#d3d3d3" stroke="none" points="0,-281.75 0,-321 100,-321 100,-281.75 0,-281.75"/>
<polygon fill="none" stroke="black" points="0,-281.75 0,-321 100,-321 100,-281.75 0,-281.75"/>
<text xml:space="preserve" text-anchor="start" x="17.75" y="-296.7" font-family="Helvetica Neue" font-size="14.00" fill="#333333">Production</text>
</g>
<!-- appmodelsproductionimage -->
<g id="node4" class="node">
<title>appmodelsproductionimage</title>
<polygon fill="none" stroke="black" points="374.75,-325 248.5,-325 248.5,-225 374.75,-225 374.75,-325"/>
<polygon fill="#d3d3d3" stroke="none" points="248.5,-285.75 248.5,-325 374.75,-325 374.75,-285.75 248.5,-285.75"/>
<polygon fill="none" stroke="black" points="248.5,-285.75 248.5,-325 374.75,-325 374.75,-285.75 248.5,-285.75"/>
<text xml:space="preserve" text-anchor="start" x="259.5" y="-300.7" font-family="Helvetica Neue" font-size="14.00" fill="#333333">ProductionImage</text>
</g>
<!-- appmodelsproduction&#45;&gt;appmodelsproductionimage -->
<g id="edge3" class="edge">
<title>appmodelsproduction:id&#45;&gt;appmodelsproductionimage:production_id</title>
<path fill="none" stroke="#fcbf49" stroke-width="1.8" d="M100.44,-271.76C139.18,-272.36 193.66,-273.2 237.44,-273.87"/>
<polygon fill="#fcbf49" stroke="#fcbf49" stroke-width="1.8" points="237.44,-273.87 247.37,-278.53 243.04,-273.96 246.84,-274.02 246.84,-274.02 246.84,-274.02 243.04,-273.96 247.51,-269.53 237.44,-273.87"/>
<text xml:space="preserve" text-anchor="middle" x="174.25" y="-276.83" font-family="Helvetica Neue" font-size="14.00"> </text>
<text xml:space="preserve" text-anchor="middle" x="141.19" y="-259.52" font-family="Helvetica Neue" font-size="14.00">HasMany</text>
<text xml:space="preserve" text-anchor="middle" x="141.19" y="-242.27" font-family="Helvetica Neue" font-size="14.00">images</text>
</g>
<!-- appmodelsproductionimage&#45;&gt;appmodelsproduction -->
<g id="edge4" class="edge">
<title>appmodelsproductionimage:production_id&#45;&gt;appmodelsproduction:id</title>
<path fill="none" stroke="#f77f00" stroke-width="1.8" d="M238,-254.83C206.42,-246.06 176.5,-237.75 176.5,-237.75 176.5,-237.75 172,-237.75 172,-237.75 172,-237.75 137.22,-247.31 104.95,-256.17"/>
<polygon fill="#f77f00" stroke="#f77f00" stroke-width="1.8" points="238.06,-254.85 246.49,-261.86 243.46,-256.35 247.11,-257.36 247.11,-257.36 247.11,-257.36 243.46,-256.35 248.9,-253.19 238.06,-254.85"/>
<polygon fill="#f77f00" stroke="#f77f00" stroke-width="1.8" points="102.5,-262.03 99.85,-252.39 101.78,-251.86 104.43,-261.5 102.5,-262.03"/>
<polyline fill="none" stroke="#f77f00" stroke-width="1.8" points="100.22,-257.48 105.04,-256.15"/>
<text xml:space="preserve" text-anchor="middle" x="174.25" y="-241.7" font-family="Helvetica Neue" font-size="14.00"> </text>
<text xml:space="preserve" text-anchor="middle" x="139.17" y="-224.61" font-family="Helvetica Neue" font-size="14.00">BelongsTo</text>
<text xml:space="preserve" text-anchor="middle" x="139.17" y="-207.36" font-family="Helvetica Neue" font-size="14.00">production</text>
</g>
<!-- appmodelsclient -->
<g id="node5" class="node">
<title>appmodelsclient</title>
<polygon fill="none" stroke="black" points="100,-493 0,-493 0,-393 100,-393 100,-493"/>
<polygon fill="#d3d3d3" stroke="none" points="0,-453.75 0,-493 100,-493 100,-453.75 0,-453.75"/>
<polygon fill="none" stroke="black" points="0,-453.75 0,-493 100,-493 100,-453.75 0,-453.75"/>
<text xml:space="preserve" text-anchor="start" x="33.12" y="-468.7" font-family="Helvetica Neue" font-size="14.00" fill="#333333">Client</text>
</g>
<!-- appmodelscontact -->
<g id="node6" class="node">
<title>appmodelscontact</title>
<polygon fill="none" stroke="black" points="100,-665 0,-665 0,-565 100,-565 100,-665"/>
<polygon fill="#d3d3d3" stroke="none" points="0,-625.75 0,-665 100,-665 100,-625.75 0,-625.75"/>
<polygon fill="none" stroke="black" points="0,-625.75 0,-665 100,-665 100,-625.75 0,-625.75"/>
<text xml:space="preserve" text-anchor="start" x="26.75" y="-640.7" font-family="Helvetica Neue" font-size="14.00" fill="#333333">Contact</text>
</g>
<!-- appmodelslocation -->
<g id="node7" class="node">
<title>appmodelslocation</title>
<polygon fill="none" stroke="black" points="100,-837 0,-837 0,-737 100,-737 100,-837"/>
<polygon fill="#d3d3d3" stroke="none" points="0,-797.75 0,-837 100,-837 100,-797.75 0,-797.75"/>
<polygon fill="none" stroke="black" points="0,-797.75 0,-837 100,-837 100,-797.75 0,-797.75"/>
<text xml:space="preserve" text-anchor="start" x="24.5" y="-812.7" font-family="Helvetica Neue" font-size="14.00" fill="#333333">Location</text>
</g>
<!-- appmodelssosmed -->
<g id="node8" class="node">
<title>appmodelssosmed</title>
<polygon fill="none" stroke="black" points="100,-1009 0,-1009 0,-909 100,-909 100,-1009"/>
<polygon fill="#d3d3d3" stroke="none" points="0,-969.75 0,-1009 100,-1009 100,-969.75 0,-969.75"/>
<polygon fill="none" stroke="black" points="0,-969.75 0,-1009 100,-1009 100,-969.75 0,-969.75"/>
<text xml:space="preserve" text-anchor="start" x="26" y="-984.7" font-family="Helvetica Neue" font-size="14.00" fill="#333333">Sosmed</text>
</g>
<!-- appmodelsstructural -->
<g id="node9" class="node">
<title>appmodelsstructural</title>
<polygon fill="none" stroke="black" points="100,-1181 0,-1181 0,-1081 100,-1081 100,-1181"/>
<polygon fill="#d3d3d3" stroke="none" points="0,-1141.75 0,-1181 100,-1181 100,-1141.75 0,-1141.75"/>
<polygon fill="none" stroke="black" points="0,-1141.75 0,-1181 100,-1181 100,-1141.75 0,-1141.75"/>
<text xml:space="preserve" text-anchor="start" x="20.38" y="-1156.7" font-family="Helvetica Neue" font-size="14.00" fill="#333333">Structural</text>
</g>
<!-- appmodelsuser -->
<g id="node10" class="node">
<title>appmodelsuser</title>
<polygon fill="none" stroke="black" points="100,-1353 0,-1353 0,-1253 100,-1253 100,-1353"/>
<polygon fill="#d3d3d3" stroke="none" points="0,-1313.75 0,-1353 100,-1353 100,-1313.75 0,-1313.75"/>
<polygon fill="none" stroke="black" points="0,-1313.75 0,-1353 100,-1353 100,-1313.75 0,-1313.75"/>
<text xml:space="preserve" text-anchor="start" x="36.12" y="-1328.7" font-family="Helvetica Neue" font-size="14.00" fill="#333333">User</text>
</g>
<!-- appmodelsvision -->
<g id="node11" class="node">
<title>appmodelsvision</title>
<polygon fill="none" stroke="black" points="100,-1525 0,-1525 0,-1425 100,-1425 100,-1525"/>
<polygon fill="#d3d3d3" stroke="none" points="0,-1485.75 0,-1525 100,-1525 100,-1485.75 0,-1485.75"/>
<polygon fill="none" stroke="black" points="0,-1485.75 0,-1525 100,-1525 100,-1485.75 0,-1485.75"/>
<text xml:space="preserve" text-anchor="start" x="32.38" y="-1500.7" font-family="Helvetica Neue" font-size="14.00" fill="#333333">Vision</text>
</g>
</g>
</svg>
